<!DOCTYPE svg PUBLIC "-//W3C//DTD SVG 1.1//EN" "http://www.w3.org/Graphics/SVG/1.1/DTD/svg11.dtd">
<!-- Uploaded to: SVG Repo, www.svgrepo.com, Transformed by: SVG Repo Mixer Tools -->
<svg width="800px" height="800px" viewBox="0 0 24 24" fill="none" xmlns="http://www.w3.org/2000/svg" stroke="#361b1b">
<g id="SVGRepo_bgCarrier" stroke-width="0"/>
<g id="SVGRepo_tracerCarrier" stroke-linecap="round" stroke-linejoin="round"/>
<g id="SVGRepo_iconCarrier">
<path d="M6.6 10h10.8c.88 0 1.6.72 1.6 1.6v7c0 1.32-1.08 2.4-2.4 2.4H7.4C6.08 21 5 19.92 5 18.6v-7c0-.88.72-1.6 1.6-1.6Z" fill="#ffffff" fill-opacity=".16" stroke="#ffffff" stroke-width="0.8399999999999999" stroke-miterlimit="10"/>
<path d="M8 10V7a4 4 0 0 1 7.874-1" stroke="#ffffff" stroke-width="0.8399999999999999" stroke-miterlimit="10" stroke-linecap="round"/>
<path d="M12 15a1 1 0 1 0 0-2 1 1 0 0 0 0 2Z" fill="#ffffff" stroke="#ffffff" stroke-width="0.8399999999999999" stroke-miterlimit="10"/>
<path d="M12 18v-3" stroke="#ffffff" stroke-width="0.8399999999999999" stroke-miterlimit="10" stroke-linecap="round"/>
</g>
</svg>